# xmcd
#
# Track frame offsets:
#	150
#	22339
#	30048
#	45010
#	59139
#	71192
#	85731
#	102703
#	124804
#	139700
#	152927
#	164671
#	174764
#	198598
#	217392
#	255594
#
# Disc length: 3626 seconds
#
# Revision: 0
# Processed by: cddbd v1.5.1PL2 Copyright (c) Steve Scherf et al.
# Submitted via: EasyCDDAExtractor 9.0.2.1
#
DISCID=ec0e2810
DTITLE=Os Galponeiros - Bola De Sabão
DYEAR=1900
DGENRE=
TTITLE0=É O Pegadão - Vaneira De Primeira
TTITLE1=Menina Dança
TTITLE2=Te Quero
TTITLE3=Apaziguar
TTITLE4=Os Fandangueiros Estão Chegando
TTITLE5=Tradição Gaúcha
TTITLE6=Amor Saudade
TTITLE7=Arreda O Cavalo Tchê - Vem Pra Festa
TTITLE8=Indecisão
TTITLE9=O Meu Laço
TTITLE10=Essa Mulher É Demais
TTITLE11=Quebra Tudo Sanfoneiro
TTITLE12=Katchanera - Voltando Pra Ela
TTITLE13=Balaçou
TTITLE14=Cantador Do Povão - Vai Embora - Pra Incendiar
TTITLE15=Bola De Sabão
EXTD=
EXTT0=
EXTT1=
EXTT2=
EXTT3=
EXTT4=
EXTT5=
EXTT6=
EXTT7=
EXTT8=
EXTT9=
EXTT10=
EXTT11=
EXTT12=
EXTT13=
EXTT14=
EXTT15=
PLAYORDER=
